<svg width="1800" height="1800" viewBox="0 0 1800 1800" fill="none" xmlns="http://www.w3.org/2000/svg">
<path d="M900 1799C1396.5 1799 1799 1396.5 1799 900C1799 403.495 1396.5 0.998901 900 0.998901C403.495 0.998901 0.998901 403.495 0.998901 900C0.998901 1396.5 403.495 1799 900 1799Z" stroke="black" stroke-width="2" stroke-miterlimit="10"/>
<path d="M900 1764.26C1377.32 1764.26 1764.26 1377.32 1764.26 900C1764.26 422.683 1377.32 35.7403 900 35.7403C422.683 35.7403 35.7403 422.683 35.7403 900C35.7403 1377.32 422.683 1764.26 900 1764.26Z" stroke="black" stroke-width="2" stroke-miterlimit="10"/>
<path d="M900 1729.51C1358.12 1729.51 1729.51 1358.12 1729.51 900C1729.51 441.875 1358.12 70.4917 900 70.4917C441.875 70.4917 70.4917 441.875 70.4917 900C70.4917 1358.12 441.875 1729.51 900 1729.51Z" stroke="black" stroke-width="2" stroke-miterlimit="10"/>
<path d="M900 1694.77C1338.94 1694.77 1694.77 1338.94 1694.77 900C1694.77 461.062 1338.94 105.233 900 105.233C461.062 105.233 105.233 461.062 105.233 900C105.233 1338.94 461.062 1694.77 900 1694.77Z" stroke="black" stroke-width="2" stroke-miterlimit="10"/>
<path d="M900 1660.03C1319.75 1660.03 1660.03 1319.75 1660.03 900C1660.03 480.25 1319.75 139.974 900 139.974C480.25 139.974 139.974 480.25 139.974 900C139.974 1319.75 480.25 1660.03 900 1660.03Z" stroke="black" stroke-width="2" stroke-miterlimit="10"/>
<path d="M900 1625.28C1300.56 1625.28 1625.28 1300.56 1625.28 900C1625.28 499.437 1300.56 174.716 900 174.716C499.437 174.716 174.716 499.437 174.716 900C174.716 1300.56 499.437 1625.28 900 1625.28Z" stroke="black" stroke-width="2" stroke-miterlimit="10"/>
<path d="M900 1590.53C1281.37 1590.53 1590.53 1281.37 1590.53 900C1590.53 518.629 1281.37 209.467 900 209.467C518.629 209.467 209.467 518.629 209.467 900C209.467 1281.37 518.629 1590.53 900 1590.53Z" stroke="black" stroke-width="2" stroke-miterlimit="10"/>
<path d="M900 1555.79C1262.18 1555.79 1555.79 1262.18 1555.79 900C1555.79 537.816 1262.18 244.209 900 244.209C537.816 244.209 244.209 537.816 244.209 900C244.209 1262.18 537.816 1555.79 900 1555.79Z" stroke="black" stroke-width="2" stroke-miterlimit="10"/>
<path d="M900 1521.05C1243 1521.05 1521.05 1243 1521.05 900C1521.05 557.004 1243 278.95 900 278.95C557.004 278.95 278.95 557.004 278.95 900C278.95 1243 557.004 1521.05 900 1521.05Z" stroke="black" stroke-width="2" stroke-miterlimit="10"/>
<path d="M900 1486.31C1223.81 1486.31 1486.31 1223.81 1486.31 900C1486.31 576.191 1223.81 313.691 900 313.691C576.191 313.691 313.691 576.191 313.691 900C313.691 1223.81 576.191 1486.31 900 1486.31Z" stroke="black" stroke-width="2" stroke-miterlimit="10"/>
<path d="M900 1451.56C1204.62 1451.56 1451.56 1204.62 1451.56 900C1451.56 595.383 1204.62 348.443 900 348.443C595.383 348.443 348.443 595.383 348.443 900C348.443 1204.62 595.383 1451.56 900 1451.56Z" stroke="black" stroke-width="2" stroke-miterlimit="10"/>
<path d="M900 1416.82C1185.43 1416.82 1416.82 1185.43 1416.82 900C1416.82 614.571 1185.43 383.184 900 383.184C614.571 383.184 383.184 614.571 383.184 900C383.184 1185.43 614.571 1416.82 900 1416.82Z" stroke="black" stroke-width="2" stroke-miterlimit="10"/>
<path d="M900 1382.07C1166.24 1382.07 1382.07 1166.24 1382.07 900C1382.07 633.758 1166.24 417.926 900 417.926C633.758 417.926 417.926 633.758 417.926 900C417.926 1166.24 633.758 1382.07 900 1382.07Z" stroke="black" stroke-width="2" stroke-miterlimit="10"/>
<path d="M900 1347.33C1147.06 1347.33 1347.33 1147.06 1347.33 900C1347.33 652.945 1147.06 452.667 900 452.667C652.945 452.667 452.667 652.945 452.667 900C452.667 1147.06 652.945 1347.33 900 1347.33Z" stroke="black" stroke-width="2" stroke-miterlimit="10"/>
<path d="M900 1312.58C1127.86 1312.58 1312.58 1127.86 1312.58 900C1312.58 672.137 1127.86 487.418 900 487.418C672.137 487.418 487.418 672.137 487.418 900C487.418 1127.86 672.137 1312.58 900 1312.58Z" stroke="black" stroke-width="2" stroke-miterlimit="10"/>
<path d="M900 1277.84C1108.68 1277.84 1277.84 1108.68 1277.84 900C1277.84 691.325 1108.68 522.16 900 522.16C691.325 522.16 522.16 691.325 522.16 900C522.16 1108.68 691.325 1277.84 900 1277.84Z" stroke="black" stroke-width="2" stroke-miterlimit="10"/>
<path d="M900 1243.1C1089.49 1243.1 1243.1 1089.49 1243.1 900C1243.1 710.512 1089.49 556.901 900 556.901C710.512 556.901 556.901 710.512 556.901 900C556.901 1089.49 710.512 1243.1 900 1243.1Z" stroke="black" stroke-width="2" stroke-miterlimit="10"/>
<path d="M900 1208.36C1070.3 1208.36 1208.36 1070.3 1208.36 900C1208.36 729.699 1070.3 591.643 900 591.643C729.699 591.643 591.643 729.699 591.643 900C591.643 1070.3 729.699 1208.36 900 1208.36Z" stroke="black" stroke-width="2" stroke-miterlimit="10"/>
<path d="M900 1173.61C1051.11 1173.61 1173.61 1051.11 1173.61 900C1173.61 748.892 1051.11 626.394 900 626.394C748.892 626.394 626.394 748.892 626.394 900C626.394 1051.11 748.892 1173.61 900 1173.61Z" stroke="black" stroke-width="2" stroke-miterlimit="10"/>
<path d="M900 1138.86C1031.92 1138.86 1138.86 1031.92 1138.86 900C1138.86 768.079 1031.92 661.135 900 661.135C768.079 661.135 661.135 768.079 661.135 900C661.135 1031.92 768.079 1138.86 900 1138.86Z" stroke="black" stroke-width="2" stroke-miterlimit="10"/>
<path d="M900 1104.12C1012.73 1104.12 1104.12 1012.73 1104.12 900C1104.12 787.266 1012.73 695.877 900 695.877C787.266 695.877 695.877 787.266 695.877 900C695.877 1012.73 787.266 1104.12 900 1104.12Z" stroke="black" stroke-width="2" stroke-miterlimit="10"/>
<path d="M900 1069.38C993.547 1069.38 1069.38 993.547 1069.38 900C1069.38 806.453 993.547 730.618 900 730.618C806.453 730.618 730.618 806.453 730.618 900C730.618 993.547 806.453 1069.38 900 1069.38Z" stroke="black" stroke-width="2" stroke-miterlimit="10"/>
<path d="M900 1034.63C974.354 1034.63 1034.63 974.354 1034.63 900C1034.63 825.646 974.354 765.37 900 765.37C825.646 765.37 765.37 825.646 765.37 900C765.37 974.354 825.646 1034.63 900 1034.63Z" stroke="black" stroke-width="2" stroke-miterlimit="10"/>
<path d="M900 999.889C955.167 999.889 999.889 955.167 999.889 900C999.889 844.833 955.167 800.111 900 800.111C844.833 800.111 800.111 844.833 800.111 900C800.111 955.167 844.833 999.889 900 999.889Z" stroke="black" stroke-width="2" stroke-miterlimit="10"/>
</svg>
