<svg width="25" height="25" viewBox="0 0 25 25" fill="none" xmlns="http://www.w3.org/2000/svg">
<path d="M20.9701 2.50002H4.03006C3.83964 2.49737 3.65056 2.53227 3.47362 2.6027C3.29669 2.67314 3.13536 2.77774 2.99886 2.91053C2.86235 3.04332 2.75334 3.2017 2.67805 3.37663C2.60276 3.55155 2.56267 3.7396 2.56006 3.93002V21.07C2.56267 21.2604 2.60276 21.4485 2.67805 21.6234C2.75334 21.7983 2.86235 21.9567 2.99886 22.0895C3.13536 22.2223 3.29669 22.3269 3.47362 22.3973C3.65056 22.4678 3.83964 22.5027 4.03006 22.5H20.9701C21.1605 22.5027 21.3496 22.4678 21.5265 22.3973C21.7034 22.3269 21.8648 22.2223 22.0013 22.0895C22.1378 21.9567 22.2468 21.7983 22.3221 21.6234C22.3974 21.4485 22.4375 21.2604 22.4401 21.07V3.93002C22.4375 3.7396 22.3974 3.55155 22.3221 3.37663C22.2468 3.2017 22.1378 3.04332 22.0013 2.91053C21.8648 2.77774 21.7034 2.67314 21.5265 2.6027C21.3496 2.53227 21.1605 2.49737 20.9701 2.50002ZM8.59006 19.24H5.59006V10.24H8.59006V19.24ZM7.09006 8.98002C6.67632 8.98002 6.27953 8.81566 5.98697 8.5231C5.69442 8.23055 5.53006 7.83376 5.53006 7.42002C5.53006 7.00628 5.69442 6.60949 5.98697 6.31693C6.27953 6.02437 6.67632 5.86002 7.09006 5.86002C7.30975 5.8351 7.53224 5.85687 7.74293 5.9239C7.95363 5.99093 8.1478 6.10171 8.31272 6.24898C8.47763 6.39625 8.60958 6.5767 8.69993 6.7785C8.79028 6.9803 8.83698 7.19891 8.83698 7.42002C8.83698 7.64112 8.79028 7.85973 8.69993 8.06154C8.60958 8.26334 8.47763 8.44378 8.31272 8.59106C8.1478 8.73833 7.95363 8.8491 7.74293 8.91613C7.53224 8.98316 7.30975 9.00493 7.09006 8.98002ZM19.4101 19.24H16.4101V14.41C16.4101 13.2 15.9801 12.41 14.8901 12.41C14.5527 12.4125 14.2242 12.5183 13.9489 12.7132C13.6735 12.9081 13.4645 13.1827 13.3501 13.5C13.2718 13.7351 13.2379 13.9826 13.2501 14.23V19.23H10.2501C10.2501 19.23 10.2501 11.05 10.2501 10.23H13.2501V11.5C13.5226 11.0271 13.919 10.6375 14.3965 10.3732C14.874 10.1089 15.4146 9.97987 15.9601 10C17.9601 10 19.4101 11.29 19.4101 14.06V19.24Z" fill="#0072B1"/>
</svg>
