<svg width="19" height="19" viewBox="0 0 19 19" fill="none" xmlns="http://www.w3.org/2000/svg">
<g clip-path="url(#clip0_202_149)">
<path d="M4.44949 7.82375C4.80041 6.76209 5.47764 5.83836 6.38458 5.18435C7.29152 4.53034 8.38184 4.17945 9.49999 4.18175C10.7675 4.18175 11.9135 4.63175 12.8135 5.36825L15.4325 2.75C13.8365 1.35875 11.7912 0.5 9.49999 0.5C5.95249 0.5 2.89849 2.5235 1.42999 5.4875L4.44949 7.82375Z" fill="#E34133"/>
<path d="M12.53 14.0098C11.7125 14.537 10.6745 14.8183 9.50002 14.8183C8.38632 14.8205 7.30012 14.4725 6.39519 13.8233C5.49027 13.1741 4.81247 12.2567 4.45776 11.201L1.42776 13.5013C2.1712 15.006 3.32172 16.272 4.74863 17.1557C6.17555 18.0393 7.82167 18.505 9.50002 18.5C11.6998 18.5 13.8013 17.7178 15.3755 16.25L12.5308 14.0098H12.53Z" fill="#32A350"/>
<path d="M15.3755 16.25C17.0217 14.714 18.0905 12.428 18.0905 9.49999C18.0905 8.96749 18.0087 8.39524 17.8865 7.86349H9.5V11.3412H14.327C14.0893 12.5105 13.4495 13.4157 12.5308 14.0097L15.3755 16.25Z" fill="#4081EC"/>
<path d="M4.45775 11.201C4.27426 10.6527 4.18105 10.0782 4.18175 9.49999C4.18175 8.91349 4.2755 8.35024 4.4495 7.82374L1.43 5.48749C0.812279 6.7345 0.493848 8.10838 0.499996 9.49999C0.499996 10.94 0.833746 12.2975 1.42775 13.5012L4.45775 11.201Z" fill="#F3B605"/>
</g>
<defs>
<clipPath id="clip0_202_149">
<rect width="18" height="18" fill="white" transform="translate(0.5 0.5)"/>
</clipPath>
</defs>
</svg>
