<svg width="24" height="24" viewBox="0 0 24 24" fill="none" xmlns="http://www.w3.org/2000/svg">
<path d="M6.5 17C5.67157 17 5 17.6716 5 18.5C5 19.0523 5.44772 19.5 6 19.5H18C18.5523 19.5 19 19.0523 19 18.5C19 17.6716 18.3284 17 17.5 17H6.5Z" fill="#FF3E3E"/>
<path fill-rule="evenodd" clip-rule="evenodd" d="M5.43919 12C5.43919 8.41015 8.34934 5.5 11.9392 5.5C15.529 5.5 18.4392 8.41015 18.4392 12L18.4392 14.792C18.4394 14.9823 18.4395 15.1462 18.4104 15.2926C18.292 15.8877 17.8269 16.3528 17.2318 16.4712C17.0854 16.5003 16.9215 16.5002 16.7311 16.5H7.14724C6.95689 16.5002 6.79298 16.5003 6.64656 16.4712C6.05152 16.3528 5.58637 15.8877 5.46801 15.2926C5.43889 15.1462 5.43902 14.9823 5.43917 14.7919L5.43919 12ZM11.0625 9.9375C11.0625 9.64629 11.0625 9.50068 11.1101 9.38582C11.1735 9.23268 11.2952 9.11101 11.4483 9.04758C11.5632 9 11.7088 9 12 9C12.2912 9 12.4368 9 12.5517 9.04758C12.7048 9.11101 12.8265 9.23268 12.8899 9.38582C12.9375 9.50068 12.9375 9.64629 12.9375 9.9375V10.5325C12.9375 10.5466 12.9375 10.5537 12.9419 10.5581C12.9463 10.5625 12.9534 10.5625 12.9675 10.5625H13.5625C13.8537 10.5625 13.9993 10.5625 14.1142 10.6101C14.2673 10.6735 14.389 10.7952 14.4524 10.9483C14.5 11.0632 14.5 11.2088 14.5 11.5C14.5 11.7912 14.5 11.9368 14.4524 12.0517C14.389 12.2048 14.2673 12.3265 14.1142 12.3899C13.9993 12.4375 13.8537 12.4375 13.5625 12.4375H12.9675C12.9534 12.4375 12.9463 12.4375 12.9419 12.4419C12.9375 12.4463 12.9375 12.4534 12.9375 12.4675V13.0625C12.9375 13.3537 12.9375 13.4993 12.8899 13.6142C12.8265 13.7673 12.7048 13.889 12.5517 13.9524C12.4368 14 12.2912 14 12 14C11.7088 14 11.5632 14 11.4483 13.9524C11.2952 13.889 11.1735 13.7673 11.1101 13.6142C11.0625 13.4993 11.0625 13.3537 11.0625 13.0625V12.4675C11.0625 12.4534 11.0625 12.4463 11.0581 12.4419C11.0537 12.4375 11.0466 12.4375 11.0325 12.4375H10.4375C10.1463 12.4375 10.0007 12.4375 9.88582 12.3899C9.73268 12.3265 9.61101 12.2048 9.54758 12.0517C9.5 11.9368 9.5 11.7912 9.5 11.5C9.5 11.2088 9.5 11.0632 9.54758 10.9483C9.61101 10.7952 9.73268 10.6735 9.88582 10.6101C10.0007 10.5625 10.1463 10.5625 10.4375 10.5625H11.0325C11.0466 10.5625 11.0537 10.5625 11.0581 10.5581C11.0625 10.5537 11.0625 10.5466 11.0625 10.5325V9.9375Z" fill="#FF3E3E"/>
<path d="M12.75 3.75C12.75 4.16421 12.4142 4.5 12 4.5C11.5858 4.5 11.25 4.16421 11.25 3.75C11.25 3.33579 11.5858 3 12 3C12.4142 3 12.75 3.33579 12.75 3.75Z" fill="#FF3E3E"/>
<path d="M18.75 6.25C18.75 6.66421 18.4142 7 18 7C17.5858 7 17.25 6.66421 17.25 6.25C17.25 5.83579 17.5858 5.5 18 5.5C18.4142 5.5 18.75 5.83579 18.75 6.25Z" fill="#FF3E3E"/>
<path d="M6.75 6.25C6.75 6.66421 6.41421 7 6 7C5.58579 7 5.25 6.66421 5.25 6.25C5.25 5.83579 5.58579 5.5 6 5.5C6.41421 5.5 6.75 5.83579 6.75 6.25Z" fill="#FF3E3E"/>
<path d="M4.5 12C4.5 12.4142 4.16421 12.75 3.75 12.75C3.33579 12.75 3 12.4142 3 12C3 11.5858 3.33579 11.25 3.75 11.25C4.16421 11.25 4.5 11.5858 4.5 12Z" fill="#FF3E3E"/>
<path d="M21 12C21 12.4142 20.6642 12.75 20.25 12.75C19.8358 12.75 19.5 12.4142 19.5 12C19.5 11.5858 19.8358 11.25 20.25 11.25C20.6642 11.25 21 11.5858 21 12Z" fill="#FF3E3E"/>
</svg>
