<svg width="24" height="24" viewBox="0 0 24 24" fill="none" xmlns="http://www.w3.org/2000/svg">
<path d="M4.38766 21.2632L4.77953 20.6237L4.38766 21.2632ZM2.73695 19.6125L3.37643 19.2206H3.37643L2.73695 19.6125ZM21.2634 19.6125L20.6239 19.2206L21.2634 19.6125ZM19.6126 21.2632L19.2208 20.6237L19.6126 21.2632ZM19.6126 5.7368L19.2208 6.37628L19.6126 5.7368ZM21.2634 7.38751L20.6239 7.77938L21.2634 7.38751ZM4.38766 5.7368L4.77953 6.37628H4.77953L4.38766 5.7368ZM2.73695 7.38751L3.37643 7.77938H3.37643L2.73695 7.38751ZM18.4769 2.54645L19.0182 2.02728V2.02728L18.4769 2.54645ZM3.84437 2.89079L4.29721 3.48865V3.48865L3.84437 2.89079ZM2.85459 3.92267L3.46991 4.35148L2.85459 3.92267ZM19.0002 5.13032H19.7502L19.7501 5.12662L19.0002 5.13032ZM18.3638 13.6137C18.778 13.6137 19.1138 13.2779 19.1138 12.8637C19.1138 12.4494 18.778 12.1137 18.3638 12.1137V13.6137ZM15.6365 12.1137C15.2223 12.1137 14.8865 12.4494 14.8865 12.8637C14.8865 13.2779 15.2223 13.6137 15.6365 13.6137V12.1137ZM10.5002 5.75H13.5002V4.25H10.5002V5.75ZM13.5002 21.25H10.5002V22.75H13.5002V21.25ZM10.5002 21.25C8.84891 21.25 7.66315 21.2492 6.73824 21.1613C5.82449 21.0744 5.24306 20.9078 4.77953 20.6237L3.99578 21.9027C4.7346 22.3554 5.57271 22.5572 6.59626 22.6545C7.60865 22.7508 8.87796 22.75 10.5002 22.75V21.25ZM1.25015 13.5C1.25015 15.1222 1.24936 16.3915 1.34562 17.4039C1.44294 18.4274 1.64472 19.2655 2.09747 20.0044L3.37643 19.2206C3.09238 18.7571 2.92576 18.1757 2.83888 17.2619C2.75094 16.337 2.75015 15.1512 2.75015 13.5H1.25015ZM4.77953 20.6237C4.20767 20.2733 3.72687 19.7925 3.37643 19.2206L2.09747 20.0044C2.57159 20.7781 3.22209 21.4286 3.99578 21.9027L4.77953 20.6237ZM13.5002 22.75C15.1223 22.75 16.3917 22.7508 17.404 22.6545C18.4276 22.5572 19.2657 22.3554 20.0045 21.9027L19.2208 20.6237C18.7572 20.9078 18.1758 21.0744 17.2621 21.1613C16.3371 21.2492 15.1514 21.25 13.5002 21.25V22.75ZM20.6239 19.2206C20.2734 19.7925 19.7926 20.2733 19.2208 20.6237L20.0045 21.9027C20.7782 21.4286 21.4287 20.7781 21.9028 20.0044L20.6239 19.2206ZM19.2208 6.37628C19.7926 6.72672 20.2734 7.20752 20.6239 7.77938L21.9028 6.99563C21.4287 6.22194 20.7782 5.57144 20.0045 5.09732L19.2208 6.37628ZM10.5002 4.25C8.87796 4.25 7.60865 4.24921 6.59626 4.34547C5.57271 4.44279 4.7346 4.64457 3.99578 5.09732L4.77953 6.37628C5.24306 6.09223 5.82449 5.92561 6.73824 5.83873C7.66315 5.75079 8.84891 5.75 10.5002 5.75V4.25ZM2.75015 13.5C2.75015 11.8488 2.75094 10.663 2.83888 9.73809C2.92576 8.82434 3.09238 8.24291 3.37643 7.77938L2.09747 6.99563C1.64472 7.73445 1.44294 8.57256 1.34562 9.59611C1.24936 10.6085 1.25015 11.8778 1.25015 13.5H2.75015ZM3.99578 5.09732C3.22209 5.57144 2.57159 6.22194 2.09747 6.99563L3.37643 7.77938C3.72687 7.20752 4.20767 6.72672 4.77953 6.37628L3.99578 5.09732ZM10.0532 2.75H15.4219V1.25H10.0532V2.75ZM15.4219 2.75C16.2876 2.75 16.8583 2.75173 17.2815 2.81105C17.6798 2.86687 17.8347 2.96039 17.9357 3.06562L19.0182 2.02728C18.595 1.58606 18.066 1.40635 17.4897 1.32557C16.9382 1.24827 16.2435 1.25 15.4219 1.25V2.75ZM10.0532 1.25C8.39302 1.25 7.08509 1.24888 6.04743 1.36609C4.99381 1.4851 4.12984 1.7337 3.39153 2.29293L4.29721 3.48865C4.73494 3.15709 5.29779 2.9603 6.21579 2.85661C7.14974 2.75112 8.35822 2.75 10.0532 2.75V1.25ZM2.75015 10.3956C2.75015 8.63063 2.7511 7.36468 2.85294 6.38472C2.9535 5.41704 3.14565 4.81679 3.46991 4.35148L2.23928 3.49385C1.7091 4.25462 1.47402 5.14188 1.36097 6.22968C1.2492 7.3052 1.25015 8.6627 1.25015 10.3956H2.75015ZM3.39153 2.29293C2.94821 2.62872 2.5596 3.03422 2.23928 3.49385L3.46991 4.35148C3.70149 4.01918 3.98091 3.72823 4.29721 3.48865L3.39153 2.29293ZM19.7501 5.12662C19.7468 4.44995 19.7324 3.86358 19.6476 3.37747C19.5596 2.87228 19.3855 2.41025 19.0182 2.02728L17.9357 3.06562C18.029 3.16295 18.1132 3.30988 18.1699 3.63506C18.2299 3.97932 18.2468 4.44473 18.2502 5.13403L19.7501 5.12662ZM1.25015 10.3956C1.25015 11.3713 1.22999 12.2642 1.25041 13.0202L2.74986 12.9798C2.7301 12.2482 2.75015 11.424 2.75015 10.3956H1.25015ZM21.5001 14.8409H15.6365V16.3409H21.5001V14.8409ZM12.1592 12.8637C12.1592 14.7841 13.7161 16.3409 15.6365 16.3409V14.8409C14.5445 14.8409 13.6592 13.9557 13.6592 12.8637H12.1592ZM13.6592 12.8637C13.6592 11.7716 14.5445 10.8864 15.6365 10.8864V9.38638C13.7161 9.38638 12.1592 10.9432 12.1592 12.8637H13.6592ZM18.3638 12.1137H15.6365V13.6137H18.3638V12.1137ZM13.5002 5.75C14.8848 5.75 15.9451 5.75032 16.8037 5.8033C17.6614 5.85623 18.2611 5.95942 18.7339 6.13895L19.2664 4.73667C18.5863 4.47839 17.8121 4.36267 16.896 4.30615C15.9808 4.24968 14.8675 4.25 13.5002 4.25V5.75ZM18.7339 6.13895C18.9109 6.20619 19.0712 6.2846 19.2208 6.37628L20.0045 5.09732C19.7711 4.95427 19.5262 4.83534 19.2664 4.73667L18.7339 6.13895ZM18.2502 5.13032V5.43781H19.7502V5.13032H18.2502ZM15.6365 10.8864H21.9446V9.38638H15.6365V10.8864ZM22.7502 13.5C22.7502 12.1255 22.7505 11.0077 22.6931 10.0896L21.196 10.1832C21.2498 11.0439 21.2502 12.108 21.2502 13.5H22.7502ZM22.6931 10.0896C22.6147 8.83476 22.4249 7.84749 21.9028 6.99563L20.6239 7.77938C20.9528 8.3161 21.1225 9.00707 21.196 10.1832L22.6931 10.0896ZM21.2502 13.5C21.2502 14.2875 21.2501 14.9722 21.2401 15.5785L22.7399 15.6034C22.7502 14.9821 22.7502 14.2839 22.7502 13.5H21.2502ZM21.2401 15.5785C21.2075 17.537 21.0636 18.5031 20.6239 19.2206L21.9028 20.0044C22.583 18.8944 22.7079 17.5313 22.7399 15.6034L21.2401 15.5785ZM21.5001 16.3409H21.99V14.8409H21.5001V16.3409Z" fill="#2D264B"/>
</svg>
