<svg width="19" height="19" viewBox="0 0 19 19" fill="none" xmlns="http://www.w3.org/2000/svg">
<g clip-path="url(#clip0_603_169)">
<path d="M20 3.79997C19.2483 4.12606 18.4534 4.34163 17.64 4.43997C18.4982 3.92729 19.1413 3.12075 19.45 2.16997C18.6436 2.65003 17.7608 2.98826 16.84 3.16997C16.2245 2.50254 15.405 2.05826 14.5098 1.90682C13.6147 1.75537 12.6945 1.90532 11.8938 2.33315C11.093 2.76099 10.4569 3.4425 10.0852 4.2708C9.71355 5.09911 9.62729 6.02736 9.84 6.90997C8.20943 6.82749 6.61444 6.40292 5.15865 5.66383C3.70287 4.92474 2.41885 3.88766 1.39 2.61997C1.02914 3.25013 0.839519 3.96379 0.84 4.68997C0.83872 5.36435 1.00422 6.02858 1.32176 6.62353C1.63929 7.21848 2.09902 7.72568 2.66 8.09997C2.00798 8.08222 1.36989 7.90726 0.8 7.58997V7.63997C0.804887 8.58486 1.13599 9.49906 1.73731 10.2279C2.33864 10.9568 3.17326 11.4556 4.1 11.64C3.74326 11.7485 3.37287 11.8058 3 11.81C2.74189 11.807 2.48442 11.7835 2.23 11.74C2.49391 12.5528 3.00462 13.2631 3.69107 13.7721C4.37753 14.2811 5.20558 14.5635 6.06 14.58C4.6172 15.7152 2.83588 16.3348 1 16.34C0.665735 16.3411 0.331736 16.321 0 16.28C1.87443 17.4902 4.05881 18.1327 6.29 18.13C7.82969 18.146 9.35714 17.855 10.7831 17.274C12.2091 16.6931 13.505 15.8338 14.5952 14.7465C15.6854 13.6591 16.548 12.3654 17.1326 10.9409C17.7172 9.51639 18.012 7.98969 18 6.44997C18 6.27996 18 6.09997 18 5.91997C18.7847 5.33478 19.4615 4.61739 20 3.79997Z" fill="#00ACEE"/>
</g>
<defs>
<clipPath id="clip0_603_169">
<rect width="18" height="18" fill="white" transform="translate(0.5 0.5)"/>
</clipPath>
</defs>
</svg>
