<svg width="58" height="41" viewBox="0 0 58 41" fill="none" xmlns="http://www.w3.org/2000/svg">
<path d="M33.7367 13.6667H36.1464C36.7855 13.6667 37.3984 13.4867 37.8504 13.1663C38.3023 12.846 38.5562 12.4114 38.5562 11.9584C38.5562 11.5053 38.3023 11.0708 37.8504 10.7504C37.3984 10.43 36.7855 10.25 36.1464 10.25H33.7367C33.0975 10.25 32.4846 10.43 32.0327 10.7504C31.5808 11.0708 31.3269 11.5053 31.3269 11.9584C31.3269 12.4114 31.5808 12.846 32.0327 13.1663C32.4846 13.4867 33.0975 13.6667 33.7367 13.6667V13.6667ZM33.7367 20.5H36.1464C36.7855 20.5 37.3984 20.32 37.8504 19.9997C38.3023 19.6793 38.5562 19.2448 38.5562 18.7917C38.5562 18.3386 38.3023 17.9041 37.8504 17.5837C37.3984 17.2633 36.7855 17.0834 36.1464 17.0834H33.7367C33.0975 17.0834 32.4846 17.2633 32.0327 17.5837C31.5808 17.9041 31.3269 18.3386 31.3269 18.7917C31.3269 19.2448 31.5808 19.6793 32.0327 19.9997C32.4846 20.32 33.0975 20.5 33.7367 20.5V20.5ZM21.6879 13.6667H24.0976C24.7367 13.6667 25.3497 13.4867 25.8016 13.1663C26.2535 12.846 26.5074 12.4114 26.5074 11.9584C26.5074 11.5053 26.2535 11.0708 25.8016 10.7504C25.3497 10.43 24.7367 10.25 24.0976 10.25H21.6879C21.0488 10.25 20.4358 10.43 19.9839 10.7504C19.532 11.0708 19.2781 11.5053 19.2781 11.9584C19.2781 12.4114 19.532 12.846 19.9839 13.1663C20.4358 13.4867 21.0488 13.6667 21.6879 13.6667V13.6667ZM21.6879 20.5H24.0976C24.7367 20.5 25.3497 20.32 25.8016 19.9997C26.2535 19.6793 26.5074 19.2448 26.5074 18.7917C26.5074 18.3386 26.2535 17.9041 25.8016 17.5837C25.3497 17.2633 24.7367 17.0834 24.0976 17.0834H21.6879C21.0488 17.0834 20.4358 17.2633 19.9839 17.5837C19.532 17.9041 19.2781 18.3386 19.2781 18.7917C19.2781 19.2448 19.532 19.6793 19.9839 19.9997C20.4358 20.32 21.0488 20.5 21.6879 20.5V20.5ZM50.6049 34.1667H48.1952V5.12502C48.1952 4.67194 47.9413 4.23742 47.4894 3.91705C47.0375 3.59667 46.4245 3.41669 45.7854 3.41669H12.0488C11.4097 3.41669 10.7968 3.59667 10.3449 3.91705C9.89298 4.23742 9.63909 4.67194 9.63909 5.12502V34.1667H7.22934C6.59023 34.1667 5.9773 34.3467 5.52538 34.667C5.07346 34.9874 4.81958 35.4219 4.81958 35.875C4.81958 36.3281 5.07346 36.7626 5.52538 37.083C5.9773 37.4034 6.59023 37.5834 7.22934 37.5834H50.6049C51.2441 37.5834 51.857 37.4034 52.3089 37.083C52.7608 36.7626 53.0147 36.3281 53.0147 35.875C53.0147 35.4219 52.7608 34.9874 52.3089 34.667C51.857 34.3467 51.2441 34.1667 50.6049 34.1667ZM31.3269 34.1667H26.5074V27.3334H31.3269V34.1667ZM43.3757 34.1667H36.1464V25.625C36.1464 25.1719 35.8925 24.7374 35.4406 24.417C34.9887 24.0967 34.3758 23.9167 33.7367 23.9167H24.0976C23.4585 23.9167 22.8456 24.0967 22.3937 24.417C21.9418 24.7374 21.6879 25.1719 21.6879 25.625V34.1667H14.4586V6.83335H43.3757V34.1667Z" fill="#FF0000" fill-opacity="0.51"/>
</svg>
