<svg width="24" height="24" viewBox="0 0 24 24" fill="none" xmlns="http://www.w3.org/2000/svg">
<path d="M21.5 12C21.5 17.5228 17.5228 21.5 12 21.5C6.47715 21.5 2.5 17.5228 2.5 12C2.5 6.47715 6.47715 2.5 12 2.5C17.5228 2.5 21.5 6.47715 21.5 12Z" stroke="#22202A"/>
<path d="M10.2202 7.77165C10.125 8.00136 10.125 8.29257 10.125 8.875V10.065C10.125 10.0933 10.125 10.1074 10.1162 10.1162C10.1074 10.125 10.0933 10.125 10.065 10.125H8.875C8.29257 10.125 8.00136 10.125 7.77165 10.2202C7.46536 10.347 7.22202 10.5904 7.09515 10.8966C7 11.1264 7 11.4176 7 12C7 12.5824 7 12.8736 7.09515 13.1034C7.22202 13.4096 7.46536 13.653 7.77165 13.7798C8.00136 13.875 8.29257 13.875 8.875 13.875H10.065C10.0933 13.875 10.1074 13.875 10.1162 13.8838C10.125 13.8926 10.125 13.9067 10.125 13.935V15.125C10.125 15.7074 10.125 15.9986 10.2202 16.2284C10.347 16.5346 10.5904 16.778 10.8966 16.9049C11.1264 17 11.4176 17 12 17C12.5824 17 12.8736 17 13.1034 16.9049C13.4096 16.778 13.653 16.5346 13.7798 16.2284C13.875 15.9986 13.875 15.7074 13.875 15.125V13.935C13.875 13.9067 13.875 13.8926 13.8838 13.8838C13.8926 13.875 13.9067 13.875 13.935 13.875H15.125C15.7074 13.875 15.9986 13.875 16.2284 13.7798C16.5346 13.653 16.778 13.4096 16.9049 13.1034C17 12.8736 17 12.5824 17 12C17 11.4176 17 11.1264 16.9049 10.8966C16.778 10.5904 16.5346 10.347 16.2284 10.2202C15.9986 10.125 15.7074 10.125 15.125 10.125H13.935C13.9067 10.125 13.8926 10.125 13.8838 10.1162C13.875 10.1074 13.875 10.0933 13.875 10.065V8.875C13.875 8.29257 13.875 8.00136 13.7798 7.77165C13.653 7.46536 13.4096 7.22202 13.1034 7.09515C12.8736 7 12.5824 7 12 7C11.4176 7 11.1264 7 10.8966 7.09515C10.5904 7.22202 10.347 7.46536 10.2202 7.77165Z" stroke="#22202A"/>
</svg>
